<svg xmlns="http://www.w3.org/2000/svg" width="66.264" height="75.662" viewBox="0 0 66.264 75.662">
  <defs>
    <style>
      .cls-1 {
        fill: #fff;
      }

      .cls-2 {
        fill: #beb9dd;
      }

      .cls-3 {
        fill: #b46e59;
      }

      .cls-4 {
        fill: #a55e4d;
      }

      .cls-5 {
        fill: #ffcbbe;
      }

      .cls-6 {
        fill: #ffddce;
      }

      .cls-7 {
        fill: #dddaec;
      }

      .cls-8 {
        fill: #ffe07d;
      }
    </style>
  </defs>
  <g id="curriculo" transform="translate(-31.825)">
    <g id="Grupo_1004" data-name="Grupo 1004" transform="translate(34.048 1.108)">
      <path id="Caminho_807" data-name="Caminho 807" class="cls-1" d="M39.323,25.509V74.445a6.5,6.5,0,0,0,6.5,6.5H96.86a6.5,6.5,0,0,0,6.5-6.5V14a6.5,6.5,0,0,0-6.5-6.5H57.33Z" transform="translate(-39.323 -7.502)"/>
      <circle id="Elipse_75" data-name="Elipse 75" class="cls-2" cx="19.369" cy="19.369" r="19.369" transform="translate(12.651 3.538)"/>
      <g id="Grupo_1002" data-name="Grupo 1002" transform="translate(18.927 9.007)">
        <path id="Caminho_808" data-name="Caminho 808" class="cls-3" d="M283.407,68.453a3.871,3.871,0,0,1,3.871,3.871v12h-7.741v-12A3.87,3.87,0,0,1,283.407,68.453Z" transform="translate(-262.965 -68.453)"/>
        <path id="Caminho_809" data-name="Caminho 809" class="cls-3" d="M194.23,68.453h-4.642a6.086,6.086,0,0,0-6.086,6.086v9.789h14.192V71.917A3.464,3.464,0,0,0,194.23,68.453Z" transform="translate(-181.123 -68.453)"/>
        <path id="Caminho_810" data-name="Caminho 810" class="cls-4" d="M194.681,68.482a6.085,6.085,0,0,0-5.476,6.055v9.788h-5.7V74.537a6.086,6.086,0,0,1,6.086-6.086h4.642A3.253,3.253,0,0,1,194.681,68.482Z" transform="translate(-181.122 -68.451)"/>
        <path id="Caminho_811" data-name="Caminho 811" class="cls-5" d="M190.637,163.451H170.35a2.95,2.95,0,0,1,0-5.9h20.287a2.95,2.95,0,1,1,0,5.9Z" transform="translate(-167.4 -144.385)"/>
        <path id="Caminho_812" data-name="Caminho 812" class="cls-6" d="M215.285,110.587v10.107a8.655,8.655,0,0,1-6.317,8.351,8.381,8.381,0,0,1-2.16.3A8.541,8.541,0,0,1,198.2,120.8v-5.434a4.779,4.779,0,0,1,4.463-4.77c.105-.007.212-.011.318-.011h.768A6.761,6.761,0,0,0,210,106.415a5.437,5.437,0,0,0,5.287,4.172Z" transform="translate(-193.651 -100.805)"/>
        <path id="Caminho_813" data-name="Caminho 813" class="cls-5" d="M208.887,153.259a8.377,8.377,0,0,1-2.079.276,8.541,8.541,0,0,1-8.605-8.541v-5.434a4.782,4.782,0,0,1,4.306-4.758v10.192A8.544,8.544,0,0,0,208.887,153.259Z" transform="translate(-193.65 -124.998)"/>
      </g>
      <path id="Caminho_814" data-name="Caminho 814" class="cls-7" d="M50.053,160.407a6.5,6.5,0,0,1-6.5-6.5V100.74l-4.228,4.228V153.9a6.5,6.5,0,0,0,6.5,6.5Z" transform="translate(-39.323 -86.961)"/>
      <path id="Caminho_815" data-name="Caminho 815" class="cls-7" d="M39.323,25.508h11.5a6.5,6.5,0,0,0,6.5-6.5V7.5" transform="translate(-39.323 -7.501)"/>
      <g id="Grupo_1003" data-name="Grupo 1003" transform="translate(12.156 46.163)">
        <path id="Caminho_816" data-name="Caminho 816" class="cls-8" d="M127.809,320.581l.605,1.226a1.255,1.255,0,0,0,.945.687l1.353.2a1.255,1.255,0,0,1,.7,2.141l-.979.954a1.255,1.255,0,0,0-.361,1.111l.231,1.348a1.255,1.255,0,0,1-1.822,1.323l-1.21-.636a1.255,1.255,0,0,0-1.168,0l-1.21.636a1.255,1.255,0,0,1-1.822-1.323l.231-1.348a1.255,1.255,0,0,0-.361-1.111l-.979-.954a1.255,1.255,0,0,1,.7-2.141l1.353-.2a1.255,1.255,0,0,0,.945-.687l.605-1.226A1.255,1.255,0,0,1,127.809,320.581Z" transform="translate(-121.578 -319.881)"/>
        <path id="Caminho_817" data-name="Caminho 817" class="cls-8" d="M227.685,320.581l.605,1.226a1.255,1.255,0,0,0,.945.687l1.353.2a1.255,1.255,0,0,1,.7,2.141l-.979.954a1.255,1.255,0,0,0-.361,1.111l.231,1.348a1.255,1.255,0,0,1-1.822,1.323l-1.21-.636a1.255,1.255,0,0,0-1.168,0l-1.21.636a1.255,1.255,0,0,1-1.822-1.323l.231-1.348a1.255,1.255,0,0,0-.361-1.111l-.979-.954a1.255,1.255,0,0,1,.7-2.141l1.353-.2a1.255,1.255,0,0,0,.945-.687l.605-1.226A1.255,1.255,0,0,1,227.685,320.581Z" transform="translate(-206.695 -319.881)"/>
        <path id="Caminho_818" data-name="Caminho 818" class="cls-8" d="M327.561,320.581l.605,1.226a1.255,1.255,0,0,0,.945.687l1.353.2a1.255,1.255,0,0,1,.7,2.141l-.979.954a1.255,1.255,0,0,0-.361,1.111l.231,1.348a1.255,1.255,0,0,1-1.822,1.323l-1.21-.636a1.255,1.255,0,0,0-1.168,0l-1.21.636a1.255,1.255,0,0,1-1.822-1.323l.231-1.348a1.255,1.255,0,0,0-.361-1.111l-.979-.954a1.255,1.255,0,0,1,.7-2.141l1.353-.2a1.255,1.255,0,0,0,.945-.687l.605-1.226A1.255,1.255,0,0,1,327.561,320.581Z" transform="translate(-291.811 -319.881)"/>
      </g>
    </g>
    <g id="Grupo_1005" data-name="Grupo 1005" transform="translate(31.825)">
      <path id="Caminho_819" data-name="Caminho 819" d="M186.429,74.761V65.932a4.975,4.975,0,0,0-8.741-3.256,4.565,4.565,0,0,0-3.572-1.723h-4.643a7.2,7.2,0,0,0-7.194,7.194v6.336a4.058,4.058,0,0,0,1.679,7.753h.5a9.645,9.645,0,0,0,9.643,9.472h.074a9.509,9.509,0,0,0,2.445-.336,9.753,9.753,0,0,0,7.128-9.135h.5a4.056,4.056,0,0,0,2.184-7.475Zm-24.312,3.417a1.842,1.842,0,0,1,1.842-1.84h.5q-.007.143-.007.287v3.4h-.493A1.844,1.844,0,0,1,162.117,78.178Zm2.9-4.057H164.5V68.147a4.978,4.978,0,0,1,4.978-4.978h4.643a2.355,2.355,0,0,1,2.355,2.355V66.7a1.166,1.166,0,0,1-.12.5l-.009.018a5.715,5.715,0,0,1-5.158,3.513h-.843c-.132,0-.265,0-.39.013a5.9,5.9,0,0,0-4.937,3.372Zm16.521,7.83a7.536,7.536,0,0,1-5.5,7.282,7.289,7.289,0,0,1-1.876.258H174.1a7.432,7.432,0,0,1-7.432-7.433V76.624A3.678,3.678,0,0,1,170.1,72.96c.079-.006.16-.008.241-.008h.768a7.846,7.846,0,0,0,6.1-2.894,6.6,6.6,0,0,0,.805.978,6.491,6.491,0,0,0,3.518,1.823Zm-1.95-12.482a4.346,4.346,0,0,1-.9-1.308V65.932a2.762,2.762,0,1,1,5.524,0V74.12h-.461V71.843a1.108,1.108,0,0,0-1.108-1.108,4.3,4.3,0,0,1-3.059-1.266Zm5.962,10.011a1.824,1.824,0,0,1-1.3.539h-.494V76.337h.494a1.841,1.841,0,0,1,1.3,3.143Z" transform="translate(-140.973 -51.945)"/>
      <path id="Caminho_820" data-name="Caminho 820" d="M235.638,166.391v-1.3a1.108,1.108,0,1,0-2.217,0v1.3a1.108,1.108,0,1,0,2.217,0Z" transform="translate(-203.629 -139.752)"/>
      <path id="Caminho_821" data-name="Caminho 821" d="M264.687,163.985a1.108,1.108,0,0,0-1.108,1.108v1.3a1.108,1.108,0,1,0,2.217,0v-1.3A1.108,1.108,0,0,0,264.687,163.985Z" transform="translate(-229.331 -139.752)"/>
      <path id="Caminho_822" data-name="Caminho 822" d="M240.244,202.041a2.408,2.408,0,0,1-2.528,0,1.108,1.108,0,0,0-1.158,1.89,4.616,4.616,0,0,0,4.844,0,1.108,1.108,0,1,0-1.159-1.89Z" transform="translate(-205.852 -172.045)"/>
      <path id="Caminho_823" data-name="Caminho 823" d="M90.471,0H50.94a1.109,1.109,0,0,0-.784.325L32.15,18.331a1.108,1.108,0,0,0-.325.784V68.052a7.619,7.619,0,0,0,7.611,7.611H90.471a7.619,7.619,0,0,0,7.611-7.611V7.612A7.62,7.62,0,0,0,90.471,0ZM44.437,18.007H35.609L49.832,3.784v8.829A5.4,5.4,0,0,1,44.437,18.007ZM95.865,68.052a5.4,5.4,0,0,1-5.394,5.394H39.436a5.4,5.4,0,0,1-5.394-5.394V20.224h10.4q.2,0,.394-.01a20.477,20.477,0,1,0,40.6,3.8,20.269,20.269,0,0,0-4.352-12.621,1.108,1.108,0,1,0-1.744,1.368,18.072,18.072,0,0,1,3.879,11.254A18.26,18.26,0,1,1,47.206,19.7a7.622,7.622,0,0,0,4.843-7.088V11.1a18.092,18.092,0,0,1,12.9-5.341A18.289,18.289,0,0,1,76.508,9.875a1.108,1.108,0,1,0,1.4-1.715A20.51,20.51,0,0,0,64.953,3.538a20.27,20.27,0,0,0-12.9,4.573V2.217H90.471a5.4,5.4,0,0,1,5.394,5.4Z" transform="translate(-31.825)"/>
      <path id="Caminho_824" data-name="Caminho 824" d="M115.769,320.188a.147.147,0,0,1,.042.13l-.231,1.347a2.361,2.361,0,0,0,3.429,2.492l1.21-.636a.147.147,0,0,1,.137,0l1.21.636A2.364,2.364,0,0,0,125,321.665l-.231-1.347a.148.148,0,0,1,.042-.13l.979-.954a2.364,2.364,0,0,0-1.31-4.032l-1.353-.2a.147.147,0,0,1-.111-.08l-.605-1.226a2.364,2.364,0,0,0-4.239,0l-.605,1.226a.147.147,0,0,1-.111.08l-1.353.2a2.364,2.364,0,0,0-1.31,4.032Zm.531-2.692a.132.132,0,0,1,.119-.1l1.353-.2a2.363,2.363,0,0,0,1.78-1.293l.605-1.226a.147.147,0,0,1,.264,0l.605,1.226a2.364,2.364,0,0,0,1.78,1.293l1.353.2a.147.147,0,0,1,.081.251l-.979.954a2.363,2.363,0,0,0-.68,2.092l.231,1.348a.147.147,0,0,1-.213.155l-1.21-.636a2.363,2.363,0,0,0-2.2,0l-1.21.636a.147.147,0,0,1-.213-.155l.231-1.348a2.363,2.363,0,0,0-.68-2.092l-.979-.954A.133.133,0,0,1,116.3,317.5Z" transform="translate(-101.92 -266.218)"/>
      <path id="Caminho_825" data-name="Caminho 825" d="M215.645,320.188a.148.148,0,0,1,.042.13l-.231,1.348a2.361,2.361,0,0,0,3.43,2.492l1.21-.636a.147.147,0,0,1,.137,0l1.21.636a2.364,2.364,0,0,0,3.429-2.492l-.231-1.347a.148.148,0,0,1,.042-.13l.979-.954a2.364,2.364,0,0,0-1.31-4.031l-1.353-.2a.147.147,0,0,1-.111-.08l-.605-1.226a2.364,2.364,0,0,0-4.239,0l-.605,1.226a.147.147,0,0,1-.111.08l-1.353.2a2.364,2.364,0,0,0-1.31,4.032Zm.531-2.692a.133.133,0,0,1,.119-.1l1.353-.2a2.363,2.363,0,0,0,1.78-1.293l.605-1.226a.147.147,0,0,1,.264,0l.605,1.226a2.364,2.364,0,0,0,1.78,1.293l1.353.2a.147.147,0,0,1,.081.251l-.979.954a2.363,2.363,0,0,0-.68,2.092l.231,1.348a.147.147,0,0,1-.213.155l-1.21-.636a2.363,2.363,0,0,0-2.2,0l-1.21.636a.147.147,0,0,1-.213-.155l.231-1.348a2.363,2.363,0,0,0-.68-2.092l-.979-.954A.132.132,0,0,1,216.176,317.5Z" transform="translate(-187.036 -266.219)"/>
      <path id="Caminho_826" data-name="Caminho 826" d="M315.521,320.188a.148.148,0,0,1,.042.13l-.231,1.348a2.361,2.361,0,0,0,3.429,2.492l1.21-.636a.147.147,0,0,1,.137,0l1.21.636a2.364,2.364,0,0,0,3.43-2.492l-.231-1.348a.147.147,0,0,1,.042-.13l.979-.954a2.364,2.364,0,0,0-1.31-4.032l-1.353-.2a.148.148,0,0,1-.111-.08l-.605-1.226a2.364,2.364,0,0,0-4.239,0l-.605,1.226a.147.147,0,0,1-.111.08l-1.353.2a2.364,2.364,0,0,0-1.31,4.032Zm.531-2.692a.133.133,0,0,1,.119-.1l1.353-.2a2.363,2.363,0,0,0,1.78-1.293l.605-1.226a.147.147,0,0,1,.264,0l.605,1.226a2.364,2.364,0,0,0,1.78,1.293l1.353.2a.147.147,0,0,1,.081.251l-.979.954a2.364,2.364,0,0,0-.68,2.092l.231,1.348a.147.147,0,0,1-.213.155l-1.21-.636a2.363,2.363,0,0,0-2.2,0l-1.21.636a.147.147,0,0,1-.213-.155l.231-1.348a2.363,2.363,0,0,0-.68-2.092l-.979-.954A.133.133,0,0,1,316.052,317.5Z" transform="translate(-272.153 -266.218)"/>
      <path id="Caminho_827" data-name="Caminho 827" d="M149.732,412.716a1.108,1.108,0,0,0,0,2.217h29.519a1.108,1.108,0,0,0,0-2.217Z" transform="translate(-131.364 -351.726)"/>
      <path id="Caminho_828" data-name="Caminho 828" d="M207.853,446.51H176.008a1.108,1.108,0,0,0,0,2.217h31.845a1.108,1.108,0,0,0,0-2.217Z" transform="translate(-153.757 -380.526)"/>
      <path id="Caminho_829" data-name="Caminho 829" d="M113.377,446.51h-5.658a1.108,1.108,0,0,0,0,2.217h5.658a1.108,1.108,0,0,0,0-2.217Z" transform="translate(-95.558 -380.526)"/>
    </g>
  </g>
</svg>
