<svg xmlns="http://www.w3.org/2000/svg" width="44.816" height="44.816" viewBox="0 0 44.816 44.816">
  <path id="Icon_ionic-logo-github" data-name="Icon ionic-logo-github" d="M24.658,2.25C12.284,2.25,2.25,12.544,2.25,25.228a22.934,22.934,0,0,0,15.325,21.8,1.757,1.757,0,0,0,.38.04,1.084,1.084,0,0,0,1.15-1.14c0-.55-.02-1.991-.03-3.911a10.244,10.244,0,0,1-2.261.27c-4.312,0-5.292-3.351-5.292-3.351-1.02-2.651-2.491-3.361-2.491-3.361-1.951-1.37-.01-1.41.14-1.41h.01a4.817,4.817,0,0,1,3.431,2.381,4.4,4.4,0,0,0,3.961,2.511,6.3,6.3,0,0,0,2.561-.6,4.964,4.964,0,0,1,1.42-3.071c-4.972-.58-10.2-2.551-10.2-11.354a8.993,8.993,0,0,1,2.3-6.162,8.458,8.458,0,0,1,.22-6.082,1.865,1.865,0,0,1,.5-.05c.81,0,2.641.31,5.662,2.411a20.829,20.829,0,0,1,11.224,0c3.021-2.1,4.852-2.411,5.662-2.411a1.865,1.865,0,0,1,.5.05,8.458,8.458,0,0,1,.22,6.082,9.03,9.03,0,0,1,2.3,6.162c0,8.823-5.242,10.764-10.234,11.334a5.571,5.571,0,0,1,1.521,4.251c0,3.071-.03,5.552-.03,6.3a1.078,1.078,0,0,0,1.14,1.15,1.936,1.936,0,0,0,.4-.04,22.93,22.93,0,0,0,15.325-21.8C47.066,12.544,37.032,2.25,24.658,2.25Z" transform="translate(-2.25 -2.25)" fill="#fff"/>
</svg>
