<svg xmlns="http://www.w3.org/2000/svg" width="49.066" height="46.894" viewBox="0 0 49.066 46.894">
  <g id="Linkedin_icon" data-name="Linkedin icon" transform="translate(0 -9.708)">
    <g id="Grupo_8" data-name="Grupo 8" transform="translate(0 9.708)">
      <rect id="Retângulo_15" data-name="Retângulo 15" width="10.541" height="31.656" transform="translate(0.607 15.237)"/>
      <path id="Caminho_149" data-name="Caminho 149" d="M180.379,142.957a11.345,11.345,0,0,0-8.784-3.626,12.661,12.661,0,0,0-3.658.5,8.3,8.3,0,0,0-2.779,1.39,11.9,11.9,0,0,0-3.051,3.351v-4.5H151.6l.032,1.533q.032,1.534.032,9.455t-.064,20.668h10.509V154.056a7.715,7.715,0,0,1,.351-2.588,6.785,6.785,0,0,1,2.029-2.731,5.172,5.172,0,0,1,3.371-1.1,4.545,4.545,0,0,1,4.041,1.9,9.242,9.242,0,0,1,1.294,5.255v16.93H183.7V153.578Q183.7,146.581,180.379,142.957Z" transform="translate(-134.636 -124.828)"/>
      <path id="Caminho_150" data-name="Caminho 150" d="M5.941,9.708a6.014,6.014,0,0,0-4.3,1.549A5.144,5.144,0,0,0,0,15.17a5.235,5.235,0,0,0,1.6,3.9,5.765,5.765,0,0,0,4.216,1.565h.064a6.019,6.019,0,0,0,4.329-1.565,5.057,5.057,0,0,0,1.613-3.9,5.328,5.328,0,0,0-1.629-3.913A5.841,5.841,0,0,0,5.941,9.708Z" transform="translate(0 -9.708)"/>
    </g>
  </g>
</svg>
