<svg xmlns="http://www.w3.org/2000/svg" xmlns:xlink="http://www.w3.org/1999/xlink" width="131.79" height="104.148" viewBox="0 0 131.79 104.148">
  <defs>
    <linearGradient id="linear-gradient" x1="1.019" y1="0.5" x2="-0.126" y2="0.5" gradientUnits="objectBoundingBox">
      <stop offset="0" stop-color="#fff9df"/>
      <stop offset="0.593" stop-color="#ffe177"/>
      <stop offset="1" stop-color="#feb237"/>
    </linearGradient>
    <linearGradient id="linear-gradient-2" x1="0.757" y1="0.5" x2="-0.419" y2="0.5" gradientUnits="objectBoundingBox">
      <stop offset="0" stop-color="#ffe177"/>
      <stop offset="1" stop-color="#feb237"/>
    </linearGradient>
    <linearGradient id="linear-gradient-3" x1="1.242" y1="0.5" x2="-4.043" y2="0.5" xlink:href="#linear-gradient-2"/>
    <linearGradient id="linear-gradient-4" x1="3.298" y1="0.5" x2="-4.277" y2="0.5" xlink:href="#linear-gradient-2"/>
    <linearGradient id="linear-gradient-5" x1="1.763" y1="0.5" x2="-0.336" y2="0.5" xlink:href="#linear-gradient-2"/>
    <linearGradient id="linear-gradient-6" x1="1.763" y1="0.5" x2="-0.338" y2="0.5" xlink:href="#linear-gradient-2"/>
    <linearGradient id="linear-gradient-7" x1="1.224" y1="0.5" x2="-0.9" y2="0.5" xlink:href="#linear-gradient-2"/>
    <linearGradient id="linear-gradient-8" x1="1.623" y1="0.5" x2="-0.473" y2="0.5" gradientUnits="objectBoundingBox">
      <stop offset="0" stop-color="#814aa0"/>
      <stop offset="0.47" stop-color="#5b3374"/>
      <stop offset="1" stop-color="#192a7d"/>
    </linearGradient>
    <linearGradient id="linear-gradient-9" x1="2.424" y1="0.5" x2="0.082" y2="0.5" xlink:href="#linear-gradient-8"/>
    <linearGradient id="linear-gradient-10" x1="1.019" y1="0.5" x2="-0.126" y2="0.5" xlink:href="#linear-gradient-8"/>
    <linearGradient id="linear-gradient-11" x1="1.019" y1="0.5" x2="-0.126" y2="0.5" xlink:href="#linear-gradient-8"/>
    <linearGradient id="linear-gradient-12" x1="1.949" y1="0.5" x2="0.119" y2="0.5" xlink:href="#linear-gradient-8"/>
  </defs>
  <g id="nuvem" transform="translate(-85 15.41)">
    <g id="half-moon" transform="translate(147.657 -15.409)">
      <path id="Caminho_652" data-name="Caminho 652" d="M44.831,66.413c13.178,0,23.852-11.646,23.769-25.978-.082-14.248-10.649-25.65-23.77-25.65A22.164,22.164,0,0,0,34,17.616c-2.418,1.347-4.776-1.928-2.961-4.124A36.079,36.079,0,0,1,58.713,0C79.37-.091,96.254,18.167,96.254,40.6S79.516,81.2,58.868,81.2A36.064,36.064,0,0,1,31.052,67.724c-1.817-2.2.515-5.5,2.934-4.149a22.166,22.166,0,0,0,10.846,2.838Z" transform="translate(-30.374 0)" fill="url(#linear-gradient)"/>
      <path id="Caminho_653" data-name="Caminho 653" d="M63.641,80.594H45.962a5.15,5.15,0,1,1,.68-10.254,9.069,9.069,0,0,1,5.905-7.329,37.5,37.5,0,0,1,11.3,17.578C63.777,80.591,63.71,80.594,63.641,80.594Z" transform="translate(0.508 -53.773)" fill="url(#linear-gradient-2)"/>
      <g id="Grupo_979" data-name="Grupo 979" transform="translate(0 0)">
        <ellipse id="Elipse_46" data-name="Elipse 46" cx="6.242" cy="6.242" rx="6.242" ry="6.242" transform="translate(39.902 60.242)" fill="url(#linear-gradient-3)"/>
        <ellipse id="Elipse_47" data-name="Elipse 47" cx="4.355" cy="4.355" rx="4.355" ry="4.355" transform="translate(26.681 3.897)" fill="url(#linear-gradient-4)"/>
        <path id="Caminho_654" data-name="Caminho 654" d="M287.485,5.67a3.355,3.355,0,0,1-5.7,1.954,3.34,3.34,0,0,0-4.3-.3,30.625,30.625,0,0,0-5.548,5.1,2.393,2.393,0,0,0-.381,2.684,23.63,23.63,0,0,0-2.555,1.129,2.441,2.441,0,0,1-2.944-3.8A37.286,37.286,0,0,1,293.737,0c1.039,0,2.069.036,3.087.116A37.191,37.191,0,0,0,286.15,2.558a3.353,3.353,0,0,1,1.334,3.112Z" transform="translate(-265.399 0)" fill="url(#linear-gradient-5)"/>
        <path id="Caminho_655" data-name="Caminho 655" d="M268.923,397.62a23.606,23.606,0,0,0,2.543,1.122,2.366,2.366,0,0,0,.391,2.7,37.289,37.289,0,0,0,24.889,12.294q-1.455.113-2.94.115a37.287,37.287,0,0,1-27.816-12.409,2.449,2.449,0,0,1,2.933-3.82Z" transform="translate(-265.312 -332.65)" fill="url(#linear-gradient-6)"/>
        <path id="Caminho_656" data-name="Caminho 656" d="M149.282,146.633c11.793-1.647,20.913-13.1,20.838-26.951-.075-13.764-9.1-24.984-20.829-26.609a21.189,21.189,0,0,1,2.926-.2c12.957,0,23.422,11.622,23.76,26.256h.01c2.491,0,4.494,2.374,4.348,5.238a4.706,4.706,0,0,1-4.063,4.64l-.045,0a2.622,2.622,0,0,0-2.254,1.73c-3.686,9.482-12.039,16.1-21.756,16.1A21.157,21.157,0,0,1,149.282,146.633Z" transform="translate(-131.893 -79.254)" fill="url(#linear-gradient-7)"/>
      </g>
    </g>
    <g id="nuvem-grande" transform="translate(85 10.77)">
      <path id="Caminho_631" data-name="Caminho 631" d="M282.558,299.841a26.611,26.611,0,0,1-12.165,50.282H216.315V349.7A68.945,68.945,0,0,0,282.558,299.841Z" transform="translate(-172.171 -272.155)" fill="url(#linear-gradient-8)"/>
      <path id="Caminho_632" data-name="Caminho 632" d="M362.214,268.363a22.347,22.347,0,0,1,2.924.2A39,39,0,0,1,412.3,235.648a39.03,39.03,0,0,0-29.645,29.978,3.444,3.444,0,0,1-3.4,2.737h-.03a22.158,22.158,0,1,0,0,44.315H362.579A22.394,22.394,0,0,1,340.06,290.9,22.157,22.157,0,0,1,362.214,268.363Z" transform="translate(-340.057 -234.71)" fill="url(#linear-gradient-9)"/>
      <path id="Caminho_630" data-name="Caminho 630" d="M238.472,268.363a22.347,22.347,0,0,1,2.924.2,38.992,38.992,0,0,1,74.97-9.047,26.613,26.613,0,0,1-1.83,53.164H238.473a22.157,22.157,0,0,1,0-44.315Z" transform="translate(-216.315 -234.71)" fill="url(#linear-gradient-10)"/>
    </g>
    <g id="nuvem-pequena">
      <path id="Caminho_638" data-name="Caminho 638" d="M14.932,57a15.055,15.055,0,0,1,1.97.133,26.276,26.276,0,0,1,50.521-6.1,17.934,17.934,0,0,1-1.233,35.826H14.932a14.932,14.932,0,0,1,0-29.863Z" transform="translate(132.662 -19.735)" fill="url(#linear-gradient-11)"/>
      <path id="Caminho_639" data-name="Caminho 639" d="M91.808,57a15.055,15.055,0,0,1,1.97.133,26.28,26.28,0,0,1,34.547-21.4A26.315,26.315,0,0,0,111.118,55.2a2.3,2.3,0,0,1-2.279,1.8h-.02a14.932,14.932,0,0,0,0,29.863H92.1A15.167,15.167,0,0,1,76.879,71.645,14.932,14.932,0,0,1,91.808,57Z" transform="translate(55.786 -19.735)" fill="url(#linear-gradient-12)"/>
    </g>
  </g>
</svg>
