<svg id="Twitter_icon" data-name="Twitter icon" xmlns="http://www.w3.org/2000/svg" width="33.352" height="27.092" viewBox="0 0 33.352 27.092">
  <defs>
    <style>
      .cls-1 {
        fill: #fff;
      }
    </style>
  </defs>
  <g id="Grupo_7" data-name="Grupo 7" transform="translate(0 0)">
    <path id="Caminho_148" data-name="Caminho 148" class="cls-1" d="M33.353,60.646a13.663,13.663,0,0,1-3.929,1.078,6.87,6.87,0,0,0,3.007-3.783A13.794,13.794,0,0,1,28.085,59.6,6.847,6.847,0,0,0,16.426,65.84a19.425,19.425,0,0,1-14.1-7.149,6.85,6.85,0,0,0,2.117,9.133,6.842,6.842,0,0,1-3.1-.859v.085A6.849,6.849,0,0,0,6.831,73.76a6.931,6.931,0,0,1-1.8.24,6.566,6.566,0,0,1-1.288-.127,6.846,6.846,0,0,0,6.39,4.752,13.727,13.727,0,0,1-8.5,2.924A14.544,14.544,0,0,1,0,81.454a19.34,19.34,0,0,0,10.487,3.078c12.586,0,19.466-10.425,19.466-19.466l-.023-.886A13.663,13.663,0,0,0,33.353,60.646Z" transform="translate(-0.001 -57.441)"/>
  </g>
</svg>
