<svg width="30" height="30" viewBox="0 0 30 30" fill="none" xmlns="http://www.w3.org/2000/svg">
<path d="M27.7564 6.91821C23.2688 -0.000228699 14.1065 -2.05706 7.00111 2.24359C0.0826717 6.54424 -2.16114 15.8935 2.32649 22.8119L2.70046 23.3729L1.20458 28.9824L6.81412 27.4865L7.37508 27.8605C9.80588 29.1694 12.4237 29.9173 15.0415 29.9173C17.8462 29.9173 20.651 29.1694 23.0818 27.6735C30.0002 23.1859 32.0571 14.0236 27.7564 6.91821V6.91821ZM23.8297 21.316C23.0818 22.4379 22.1469 23.1859 20.838 23.3729C20.09 23.3729 19.1551 23.7468 15.4154 22.251C12.2367 20.7551 9.61889 18.3243 7.74905 15.5195C6.62714 14.2106 6.06618 12.5277 5.8792 10.8449C5.8792 9.34901 6.44015 8.04012 7.37508 7.10519C7.74905 6.73122 8.12302 6.54424 8.49699 6.54424H9.43191C9.80588 6.54424 10.1798 6.54424 10.3668 7.29218C10.7408 8.2271 11.6757 10.4709 11.6757 10.6579C11.8627 10.8449 11.8627 11.2189 11.6757 11.4058C11.8627 11.7798 11.6757 12.1538 11.4887 12.3408C11.3018 12.5278 11.1148 12.9017 10.9278 13.0887C10.5538 13.2757 10.3668 13.6497 10.5538 14.0236C11.3018 15.1455 12.2367 16.2674 13.1716 17.2024C14.2935 18.1373 15.4154 18.8852 16.7243 19.4462C17.0983 19.6332 17.4723 19.6332 17.6592 19.2592C17.8462 18.8852 18.7811 17.9503 19.1551 17.5763C19.5291 17.2024 19.7161 17.2024 20.09 17.3894L23.0818 18.8852C23.4558 19.0722 23.8297 19.2592 24.0167 19.4462C24.2037 20.0071 24.2037 20.7551 23.8297 21.316V21.316Z" fill="#21243D"/>
</svg>
